<?xml version="1.0" encoding="UTF-8"?>
<svg xmlns="http://www.w3.org/2000/svg" xmlns:xlink="http://www.w3.org/1999/xlink" width="192pt" height="133.500001pt" viewBox="0 0 192 133.500001" version="1.2">
<g id="surface1">
<path style=" stroke:none;fill-rule:nonzero;fill:rgb(100%,100%,100%);fill-opacity:1;" d="M 92.074219 49.628906 C 92.074219 49.628906 84.683594 33.984375 98.015625 26.640625 C 111.347656 19.300781 137.203125 25.523438 146.039062 40.371094 C 146.039062 40.371094 153.265625 29.835938 165.3125 34.304688 C 177.359375 38.773438 181.695312 48.667969 177.035156 57.769531 C 177.035156 57.769531 186.191406 56.492188 188.761719 67.503906 C 191.332031 78.519531 182.820312 84.105469 175.269531 81.390625 C 175.269531 81.390625 178.320312 93.683594 162.097656 102.460938 C 145.878906 111.242188 128.851562 98.789062 128.851562 98.789062 C 128.851562 98.789062 124.996094 111.71875 102.832031 111.402344 C 80.667969 111.082031 77.777344 95.277344 77.777344 95.277344 C 77.777344 95.277344 73.921875 99.269531 66.535156 98.632812 C 59.144531 97.992188 56.898438 94.003906 56.898438 94.003906 C 56.898438 94.003906 52.238281 103.101562 38.589844 103.578125 C 24.9375 104.058594 18.832031 94.800781 20.4375 89.214844 C 20.4375 89.214844 0.683594 89.375 1.648438 75.644531 C 2.609375 61.917969 24.453125 60.324219 37.625 67.503906 C 37.625 67.503906 37.625 60.960938 46.617188 62.558594 C 55.613281 64.152344 58.664062 69.101562 58.664062 69.101562 C 58.664062 69.101562 57.058594 63.355469 60.429688 56.171875 C 63.804688 48.988281 76.171875 46.277344 79.0625 55.535156 C 79.0625 55.535156 82.597656 47.234375 92.074219 49.628906 Z M 92.074219 49.628906 "/>
<path style=" stroke:none;fill-rule:nonzero;fill:rgb(75.689697%,81.568909%,82.749939%);fill-opacity:1;" d="M 188.761719 67.503906 C 191.332031 78.878906 182.820312 84.648438 175.269531 81.847656 C 175.269531 81.847656 178.320312 94.539062 162.097656 103.605469 C 145.878906 112.671875 128.851562 99.8125 128.851562 99.8125 C 128.851562 99.8125 124.996094 113.167969 102.832031 112.835938 C 80.667969 112.507812 77.777344 96.1875 77.777344 96.1875 C 77.777344 96.1875 73.921875 100.308594 66.535156 99.648438 C 59.144531 98.992188 56.898438 94.871094 56.898438 94.871094 C 56.898438 94.871094 52.238281 104.265625 38.589844 104.757812 C 24.9375 105.253906 18.832031 95.695312 20.4375 89.925781 C 20.4375 89.925781 0.683594 90.089844 1.648438 75.914062 C 1.648438 75.914062 7.347656 88.191406 27.34375 83.742188 C 27.34375 83.742188 25.417969 92.644531 33.609375 97.09375 C 41.800781 101.546875 51.195312 97.589844 56.253906 90.664062 C 56.253906 90.664062 67.820312 101.546875 82.515625 89.183594 C 82.515625 89.183594 86.851562 99.8125 103.234375 103.027344 C 119.617188 106.242188 127.566406 97.09375 124.4375 89.925781 C 124.4375 89.925781 140.578125 101.792969 156.238281 95.609375 C 171.898438 89.429688 165.632812 73.109375 165.632812 73.109375 C 165.632812 73.109375 173.582031 80.527344 181.773438 77.066406 C 189.964844 73.605469 188.761719 67.503906 188.761719 67.503906 Z M 188.761719 67.503906 "/>
</g>
</svg>
