<svg id="Capa_1" enable-background="new 0 0 512 512" height="512" viewBox="0 0 512 512" width="512" xmlns="http://www.w3.org/2000/svg"><g><path d="m496 61.988v290h-480v-290c0-24.81 20.19-45 45-45h390c24.81 0 45 20.19 45 45z" fill="#f3f5f9"/><path d="m496 61.988v290h-240v-335h195c24.81 0 45 20.19 45 45z" fill="#d8e0f0"/><path d="m466 349.692h-420v-287.704c0-8.271 6.729-15 15-15h390c8.271 0 15 6.729 15 15z" fill="#9bf"/><path d="m466 61.988v287.7h-210v-302.7h195c8.27 0 15 6.73 15 15z" fill="#738aff"/><path d="m206.674 153.01c-5.849-5.868-15.347-5.884-21.213-.035l-30.1 30c-5.871 5.85-5.882 15.367-.018 21.23l30.024 30.025c5.857 5.858 15.354 5.858 21.213 0 5.858-5.858 5.858-15.355 0-21.213l-19.4-19.401 19.458-19.394c5.869-5.847 5.884-15.345.036-21.212z" fill="#f3f5f9"/><path d="m356.656 183.018-30.024-30.025c-5.856-5.858-15.354-5.857-21.213 0-5.858 5.858-5.858 15.355 0 21.213l19.4 19.401-19.458 19.393c-5.868 5.848-5.884 15.346-.035 21.213 5.861 5.88 15.359 5.871 21.213.035l30.1-30c5.871-5.85 5.881-15.367.017-21.23z" fill="#d8e0f0"/><path d="m276.536 141.626c-7.701-3.059-16.419.706-19.478 8.405l-30 75.545c-3.057 7.699.706 16.419 8.405 19.477 7.732 3.072 16.433-.741 19.478-8.405l30-75.545c3.057-7.699-.706-16.42-8.405-19.477z" fill="#f3f5f9"/><path d="m284.94 161.108-28.94 72.87v-81.28l1.06-2.67c3.06-7.7 11.77-11.46 19.48-8.4 7.7 3.06 11.46 11.78 8.4 19.48z" fill="#d8e0f0"/><path d="m0 349.988v35l30 30h452c11.716-11.716 18.284-18.284 30-30v-35c0-5.523-4.477-10-10-10h-186l-10 15h-100l-10-15h-186c-5.523 0-10 4.477-10 10z" fill="#544473"/><path d="m512 349.988v35l-30 30h-226v-60h50l10-15h186c5.52 0 10 4.48 10 10z" fill="#413559"/><path d="m116.798 452.953 17.951-107.704c4.353-26.119 26.951-45.262 53.43-45.262h135.703c26.49 0 49.094 19.159 53.434 45.291l17.89 107.701c3.654 21.995-13.31 42.009-35.606 42.009-.104-.031-22.012.591-32.284-19.952l-22.524-45.048h-97.5l-23.011 45.895c-10.235 20.413-31.861 19.133-31.76 19.105-22.417 0-39.391-20.031-35.723-42.035z" fill="#ffdf40"/><path d="m359.6 494.988c-.1-.03-22.01.59-32.28-19.95l-22.53-45.05h-48.79v-130h67.88c26.49 0 49.09 19.16 53.44 45.29l17.89 107.7c3.65 22-13.31 42.01-35.61 42.01z" fill="#ffbe40"/><circle cx="210.939" cy="367.488" fill="#544473" r="15"/><circle cx="300.939" cy="367.488" fill="#413559" r="15"/></g></svg>