<?xml version="1.0" encoding="UTF-8"?>
<svg xmlns="http://www.w3.org/2000/svg" xmlns:xlink="http://www.w3.org/1999/xlink" width="540pt" height="323.999988pt" viewBox="0 0 540 323.999988" version="1.2">
<defs>
<clipPath id="clip1">
  <path d="M 72 214 L 158 214 L 158 323.40625 L 72 323.40625 Z M 72 214 "/>
</clipPath>
<clipPath id="clip2">
  <path d="M 0 227 L 82 227 L 82 323.40625 L 0 323.40625 Z M 0 227 "/>
</clipPath>
<clipPath id="clip3">
  <path d="M 196 36.449219 L 322 36.449219 L 322 234 L 196 234 Z M 196 36.449219 "/>
</clipPath>
<clipPath id="clip4">
  <path d="M 138 66 L 345 66 L 345 323.40625 L 138 323.40625 Z M 138 66 "/>
</clipPath>
<clipPath id="clip5">
  <path d="M 48 173 L 161 173 L 161 323.40625 L 48 323.40625 Z M 48 173 "/>
</clipPath>
<clipPath id="clip6">
  <path d="M 317 135 L 540 135 L 540 323.40625 L 317 323.40625 Z M 317 135 "/>
</clipPath>
<clipPath id="clip7">
  <path d="M 180 180 L 453 180 L 453 323.40625 L 180 323.40625 Z M 180 180 "/>
</clipPath>
</defs>
<g id="surface1">
<path style=" stroke:none;fill-rule:nonzero;fill:rgb(82.749939%,82.348633%,82.348633%);fill-opacity:1;" d="M 99.789062 226.566406 C 94.910156 221.042969 90.023438 215.519531 85.140625 210 C 84.570312 209.347656 83.917969 208.671875 83.136719 208.359375 C 83.609375 210.3125 84.007812 212.238281 84.328125 214.136719 C 89.652344 218.445312 94.414062 222.71875 99.789062 226.566406 "/>
<path style=" stroke:none;fill-rule:nonzero;fill:rgb(59.609985%,67.83905%,70.199585%);fill-opacity:1;" d="M 78.078125 255.269531 C 78.085938 255.207031 78.101562 255.152344 78.113281 255.089844 C 78.097656 255.0625 78.085938 255.03125 78.078125 255 L 78.078125 255.269531 "/>
<path style=" stroke:none;fill-rule:nonzero;fill:rgb(82.749939%,82.348633%,82.348633%);fill-opacity:1;" d="M 95.804688 234.773438 L 85.832031 225.347656 C 86.007812 226.757812 86.210938 228.207031 86.421875 229.667969 L 98.058594 243.953125 L 95.804688 234.773438 "/>
<g clip-path="url(#clip1)" clip-rule="nonzero">
<path style=" stroke:none;fill-rule:nonzero;fill:rgb(42.749023%,56.858826%,59.609985%);fill-opacity:1;" d="M 148.011719 284.359375 C 143.070312 275.542969 136.320312 267.890625 129.621094 260.3125 C 122.722656 252.507812 115.824219 244.707031 108.925781 236.902344 C 105.878906 233.457031 102.832031 230.011719 99.789062 226.566406 C 94.414062 222.71875 89.652344 218.445312 84.328125 214.136719 C 84.824219 217.109375 85.183594 220.074219 85.550781 223.078125 C 85.644531 223.835938 85.734375 224.578125 85.832031 225.347656 L 95.804688 234.773438 L 97.996094 243.671875 L 98.058594 243.953125 L 86.421875 229.667969 C 86.480469 230.09375 86.527344 230.5 86.59375 230.933594 C 83.355469 239.101562 79.578125 246.523438 78.113281 255.089844 C 79.800781 259.328125 81.761719 263.359375 83.519531 267.332031 C 82.320312 274.105469 81.175781 280.875 79.988281 287.644531 C 77.902344 299.582031 75.699219 311.515625 72.832031 323.445312 L 144.941406 323.445312 C 149.0625 315.6875 151.363281 306.257812 157.972656 300.445312 C 153.539062 295.921875 151.105469 289.882812 148.011719 284.359375 "/>
</g>
<g clip-path="url(#clip2)" clip-rule="nonzero">
<path style=" stroke:none;fill-rule:nonzero;fill:rgb(30.979919%,45.098877%,47.059631%);fill-opacity:1;" d="M 76.449219 265.84375 L 72.046875 262.914062 L 54.605469 289.652344 L 55.597656 284.917969 L 57.421875 276.207031 L 69.621094 252.117188 L 76.800781 237.933594 L 76.105469 227.140625 L 72.511719 227.910156 L 67.109375 246.300781 L 59.75 249.277344 L 59.351562 249.792969 L 47.71875 264.921875 C 40.367188 267.867188 34.011719 271.363281 28.367188 275.652344 C 24.015625 280.851562 19.691406 287.476562 15.636719 294.4375 C 9.785156 304.488281 4.5 315.242188 0.519531 323.445312 L 72.832031 323.445312 C 75.699219 311.515625 77.902344 299.582031 79.988281 287.644531 C 80.550781 284.433594 81.105469 281.222656 81.660156 278.007812 L 76.449219 265.84375 "/>
</g>
<path style=" stroke:none;fill-rule:nonzero;fill:rgb(82.749939%,82.348633%,82.348633%);fill-opacity:1;" d="M 78.078125 255.269531 L 78.078125 255 C 78.085938 255.03125 78.097656 255.0625 78.113281 255.089844 C 79.578125 246.523438 83.355469 239.101562 86.59375 230.933594 C 85.6875 225.050781 85.242188 219.652344 84.328125 214.136719 C 84.007812 212.238281 83.609375 210.3125 83.136719 208.359375 C 82.90625 208.269531 82.667969 208.199219 82.414062 208.183594 C 80.984375 208.089844 79.886719 209.363281 79.039062 210.511719 C 71.429688 220.886719 64.355469 231.65625 57.863281 242.765625 C 55.03125 247.613281 52.285156 252.566406 48.585938 256.792969 C 44.128906 261.886719 38.460938 265.742188 33.441406 270.28125 C 31.757812 271.804688 30.058594 273.632812 28.367188 275.652344 C 34.011719 271.363281 40.367188 267.867188 47.71875 264.921875 L 59.351562 249.792969 L 59.75 249.277344 L 67.109375 246.300781 L 72.511719 227.910156 L 76.105469 227.140625 L 76.800781 237.933594 L 57.421875 276.207031 L 54.605469 289.652344 L 72.046875 262.914062 L 76.449219 265.84375 L 81.660156 278.007812 C 82.273438 274.453125 82.890625 270.894531 83.519531 267.332031 C 81.761719 263.359375 79.800781 259.328125 78.113281 255.089844 C 78.101562 255.152344 78.085938 255.207031 78.078125 255.269531 "/>
<path style=" stroke:none;fill-rule:nonzero;fill:rgb(49.798584%,60.778809%,62.748718%);fill-opacity:1;" d="M 129.265625 216.683594 L 128.945312 217.035156 L 129.265625 216.679688 Z M 129.265625 216.683594 "/>
<g clip-path="url(#clip3)" clip-rule="nonzero">
<path style=" stroke:none;fill-rule:nonzero;fill:rgb(82.749939%,82.348633%,82.348633%);fill-opacity:1;" d="M 272.933594 66.757812 L 293.277344 102.851562 L 317.960938 126.921875 L 301.023438 98.03125 L 321.417969 110.464844 C 298.65625 89.417969 279.71875 64.246094 265.9375 36.496094 C 265.140625 37.347656 264.34375 38.199219 263.546875 39.050781 L 256.625 65.988281 L 236.367188 90.84375 L 251.480469 128.785156 L 231.300781 188.734375 L 203.851562 206.261719 L 196.253906 233.570312 L 232.621094 198.230469 L 243.054688 217.140625 L 239.246094 191.4375 L 260.761719 131.117188 L 257.871094 139.230469 L 264.457031 186.28125 L 276.476562 204.792969 L 268.484375 139.808594 L 279.0625 139.21875 L 298.679688 156.722656 L 286.414062 130.855469 L 256.78125 113.332031 L 252.1875 92.78125 L 267.972656 89.167969 L 272.933594 66.757812 "/>
</g>
<path style=" stroke:none;fill-rule:nonzero;fill:rgb(82.749939%,82.348633%,82.348633%);fill-opacity:1;" d="M 200.839844 126 C 200.277344 127.410156 199.730469 128.832031 199.179688 130.253906 L 209.449219 116.589844 L 227.542969 86.03125 L 261.121094 48.515625 L 263.546875 39.050781 C 238.953125 65.367188 214.207031 92.640625 200.839844 126 "/>
<path style=" stroke:none;fill-rule:nonzero;fill:rgb(82.749939%,82.348633%,82.348633%);fill-opacity:1;" d="M 149.667969 167.808594 L 151.246094 149.707031 C 140.289062 170.648438 129.558594 200.5 122.019531 224.628906 L 127.945312 218.128906 L 146.652344 173.609375 L 152.035156 193.597656 L 162.8125 215.582031 L 149.667969 167.808594 "/>
<path style=" stroke:none;fill-rule:nonzero;fill:rgb(82.749939%,82.348633%,82.348633%);fill-opacity:1;" d="M 158.03125 181.894531 L 157.921875 181.21875 L 158.015625 181.113281 L 157.503906 157.195312 L 169.382812 156.941406 C 159.890625 152.847656 151.640625 148.929688 151.640625 148.929688 C 151.507812 149.183594 151.378906 149.453125 151.246094 149.707031 L 149.667969 167.808594 L 162.8125 215.582031 L 163.578125 217.148438 L 158.03125 181.894531 "/>
<path style=" stroke:none;fill-rule:nonzero;fill:rgb(82.749939%,82.348633%,82.348633%);fill-opacity:1;" d="M 236.507812 91.203125 L 209.992188 129.011719 L 203.300781 148.015625 L 231.382812 114.652344 L 251.390625 129.058594 L 251.480469 128.785156 L 236.507812 91.203125 "/>
<path style=" stroke:none;fill-rule:nonzero;fill:rgb(30.979919%,45.098877%,47.059631%);fill-opacity:1;" d="M 261.121094 48.515625 L 227.542969 86.03125 L 209.449219 116.589844 L 199.179688 130.253906 C 197.246094 135.253906 195.257812 140.242188 192.1875 144.617188 C 188.140625 150.386719 182.558594 154.632812 176.648438 158.570312 L 175.851562 159.34375 L 202.808594 170.070312 L 187.125 175.71875 L 203.980469 206.179688 L 229.761719 189.714844 L 231.300781 188.734375 L 251.390625 129.058594 L 231.382812 114.652344 L 203.300781 148.015625 L 209.992188 129.011719 L 236.507812 91.203125 L 236.367188 90.84375 L 256.625 65.988281 L 261.121094 48.515625 "/>
<g clip-path="url(#clip4)" clip-rule="nonzero">
<path style=" stroke:none;fill-rule:nonzero;fill:rgb(42.749023%,56.858826%,59.609985%);fill-opacity:1;" d="M 194.171875 241.046875 L 194.464844 240 L 195.15625 237.511719 Z M 321.417969 110.464844 L 301.023438 98.03125 L 317.960938 126.921875 L 293.277344 102.851562 L 272.933594 66.757812 L 267.972656 89.167969 L 252.1875 92.78125 L 256.78125 113.332031 L 286.414062 130.855469 L 288.308594 134.84375 L 298 155.292969 L 298.679688 156.722656 L 279.0625 139.21875 L 268.484375 139.808594 L 275.96875 200.621094 L 276.476562 204.792969 L 274.683594 202.027344 L 264.457031 186.28125 L 261.589844 165.789062 L 257.871094 139.230469 L 239.246094 191.4375 L 243.054688 217.140625 L 232.621094 198.230469 L 196.253906 233.570312 L 203.851562 206.261719 L 203.980469 206.179688 L 187.125 175.71875 L 202.808594 170.070312 L 175.851562 159.34375 L 176.648438 158.570312 C 176.203125 158.867188 175.761719 159.164062 175.320312 159.453125 C 173.328125 158.628906 171.332031 157.78125 169.382812 156.941406 L 157.503906 157.195312 L 158.015625 181.113281 L 157.921875 181.21875 L 163.261719 215.125 L 163.578125 217.148438 L 160.386719 210.640625 L 159.640625 266.679688 L 159.730469 266.4375 L 147.726562 299.367188 L 138.992188 323.351562 L 138.957031 323.445312 L 221.273438 323.445312 L 231.328125 270.011719 L 231.421875 269.523438 L 234.726562 251.953125 L 258.183594 232.96875 L 268.9375 224.253906 L 278.621094 216.410156 L 296.136719 187.660156 L 303.785156 175.105469 L 308.65625 167.105469 L 309.105469 166.371094 L 313.894531 158.507812 L 324.546875 156.769531 L 338.832031 137.53125 L 344.726562 129.589844 C 336.585938 123.6875 328.800781 117.292969 321.417969 110.464844 "/>
</g>
<g clip-path="url(#clip5)" clip-rule="nonzero">
<path style=" stroke:none;fill-rule:nonzero;fill:rgb(30.979919%,45.098877%,47.059631%);fill-opacity:1;" d="M 151.441406 192.382812 L 152.035156 193.597656 L 146.652344 173.609375 L 127.945312 218.128906 L 128.945312 217.035156 L 129.265625 216.683594 L 129.265625 216.679688 L 128.945312 217.035156 L 122.019531 224.628906 C 118.878906 230.707031 115.710938 236.765625 112.304688 242.597656 C 102.183594 259.925781 89.546875 275.785156 74.917969 289.53125 L 61.007812 307.675781 L 48.289062 323.445312 L 138.957031 323.445312 L 159.640625 266.679688 L 160.386719 210.640625 L 151.441406 192.382812 "/>
</g>
<path style=" stroke:none;fill-rule:nonzero;fill:rgb(82.749939%,82.348633%,82.348633%);fill-opacity:1;" d="M 318.011719 200.941406 L 331.183594 215.207031 L 329.800781 210.769531 L 320.210938 201.203125 L 317.542969 171.433594 L 327.496094 160.574219 L 328.988281 150.78125 L 324.546875 156.769531 L 314.023438 158.488281 L 313.289062 181.925781 L 318.011719 200.941406 "/>
<path style=" stroke:none;fill-rule:nonzero;fill:rgb(82.749939%,82.348633%,82.348633%);fill-opacity:1;" d="M 318.011719 200.941406 L 313.289062 181.925781 L 314.023438 158.488281 L 313.894531 158.507812 L 277.304688 218.578125 L 284.453125 215.109375 L 309.480469 180.242188 L 315.398438 202.066406 L 331.839844 217.320312 L 331.183594 215.207031 L 318.011719 200.941406 "/>
<path style=" stroke:none;fill-rule:nonzero;fill:rgb(82.749939%,82.348633%,82.348633%);fill-opacity:1;" d="M 342.390625 138.308594 L 345.566406 145.652344 L 345.453125 136.328125 L 350.230469 124.492188 C 347.960938 127.234375 344.960938 129.769531 344.960938 129.769531 C 344.882812 129.710938 344.804688 129.648438 344.726562 129.589844 L 328.988281 150.78125 L 327.496094 160.574219 L 327.644531 160.414062 L 349.023438 175.402344 L 336.527344 157.4375 L 342.390625 138.308594 "/>
<path style=" stroke:none;fill-rule:nonzero;fill:rgb(82.749939%,82.348633%,82.348633%);fill-opacity:1;" d="M 411.402344 187.976562 C 410.125 185.171875 409.03125 182.175781 406.839844 180 C 404.039062 177.214844 399.960938 176.273438 396.328125 174.707031 C 375.15625 165.578125 370.203125 136.007812 350.246094 124.476562 C 350.242188 124.480469 350.234375 124.484375 350.230469 124.492188 L 345.453125 136.328125 L 345.566406 145.652344 L 345.902344 146.433594 L 348.789062 135.640625 L 362.609375 146.433594 L 376.777344 173.554688 L 365.921875 223.261719 L 375.675781 209.480469 L 385.703125 181.917969 L 398.335938 182.078125 L 412.929688 191.023438 C 412.398438 190.023438 411.878906 189.011719 411.402344 187.976562 "/>
<g clip-path="url(#clip6)" clip-rule="nonzero">
<path style=" stroke:none;fill-rule:nonzero;fill:rgb(42.749023%,56.858826%,59.609985%);fill-opacity:1;" d="M 506.929688 281.289062 C 501.957031 277.464844 496.976562 273.640625 492.003906 269.8125 C 489.320312 267.753906 486.605469 265.671875 483.496094 264.34375 C 480.777344 263.1875 477.820312 262.632812 475.160156 261.355469 C 474.367188 260.972656 473.621094 260.527344 472.898438 260.046875 C 469.992188 258.109375 467.570312 255.445312 465.21875 252.828125 C 456.300781 242.875 447.382812 232.921875 438.46875 222.972656 C 435.703125 219.886719 432.9375 216.804688 430.179688 213.71875 C 423.820312 206.628906 417.394531 199.398438 412.929688 191.023438 L 398.335938 182.078125 L 385.703125 181.917969 L 375.675781 209.480469 L 366.71875 222.136719 L 365.921875 223.261719 L 372.992188 190.898438 L 373.816406 187.132812 L 376.777344 173.554688 L 370.816406 162.140625 L 362.609375 146.433594 L 361.382812 145.472656 L 348.789062 135.640625 L 345.902344 146.433594 L 342.390625 138.308594 L 336.527344 157.4375 L 349.023438 175.402344 L 348.46875 175.015625 L 327.644531 160.414062 L 327.523438 160.546875 L 317.542969 171.433594 L 320.210938 201.203125 L 329.800781 210.769531 L 331.515625 216.277344 L 331.839844 217.320312 L 331.699219 217.1875 L 346.386719 260.605469 L 452.699219 323.445312 L 539.457031 323.445312 L 506.929688 281.289062 "/>
</g>
<g clip-path="url(#clip7)" clip-rule="nonzero">
<path style=" stroke:none;fill-rule:nonzero;fill:rgb(30.979919%,45.098877%,47.059631%);fill-opacity:1;" d="M 346.386719 260.605469 L 331.699219 217.1875 L 330.292969 215.882812 L 315.398438 202.066406 L 315.320312 201.769531 L 309.480469 180.242188 L 284.453125 215.109375 L 277.304688 218.578125 L 278.621094 216.410156 L 234.726562 251.953125 L 180.875 323.445312 L 452.699219 323.445312 L 346.386719 260.605469 "/>
</g>
</g>
</svg>
