<?xml version="1.0" encoding="UTF-8"?>
<svg xmlns="http://www.w3.org/2000/svg" xmlns:xlink="http://www.w3.org/1999/xlink" width="192pt" height="133.500001pt" viewBox="0 0 192 133.500001" version="1.2">
<g id="surface1">
<path style=" stroke:none;fill-rule:nonzero;fill:rgb(100%,100%,100%);fill-opacity:1;" d="M 68.015625 45.070312 C 68.015625 45.070312 72.0625 29.453125 93.574219 25.777344 C 115.089844 22.101562 129.433594 37.71875 129.433594 37.71875 C 129.433594 37.71875 135.316406 25.039062 155.726562 33.492188 C 176.140625 41.945312 173.378906 59.769531 173.378906 59.769531 C 173.378906 59.769531 184.964844 58.117188 188.277344 70.246094 C 191.585938 82.371094 184.597656 89.171875 179.449219 90.828125 C 179.449219 90.828125 172.277344 105.34375 152.234375 95.605469 C 152.234375 95.605469 152.050781 102.585938 141.382812 105.527344 C 130.71875 108.46875 123.917969 102.402344 123.917969 102.402344 C 123.917969 102.402344 117.296875 110.855469 107.734375 101.851562 C 107.734375 101.851562 104.609375 110.304688 90.265625 108.835938 C 75.921875 107.363281 74.265625 94.871094 74.265625 94.871094 C 74.265625 94.871094 62.316406 106.445312 42.269531 99.648438 C 22.226562 92.847656 25.355469 84.394531 25.355469 84.394531 C 25.355469 84.394531 8.4375 87.886719 4.390625 77.230469 C 0.347656 66.570312 20.390625 48.5625 33.261719 58.117188 C 33.261719 58.117188 35.101562 50.03125 44.660156 43.601562 C 54.222656 37.167969 68.015625 45.070312 68.015625 45.070312 Z M 68.015625 45.070312 "/>
<path style=" stroke:none;fill-rule:nonzero;fill:rgb(75.689697%,81.568909%,82.749939%);fill-opacity:1;" d="M 188.277344 70.246094 C 191.585938 82.371094 184.597656 89.171875 179.449219 90.828125 C 179.449219 90.828125 172.277344 105.34375 152.234375 95.605469 C 152.234375 95.605469 152.050781 102.585938 141.382812 105.527344 C 130.71875 108.46875 123.917969 102.402344 123.917969 102.402344 C 123.917969 102.402344 117.296875 110.855469 107.734375 101.851562 C 107.734375 101.851562 104.609375 110.304688 90.265625 108.835938 C 75.921875 107.363281 74.265625 94.871094 74.265625 94.871094 C 74.265625 94.871094 62.316406 106.445312 42.269531 99.648438 C 22.226562 92.847656 25.355469 84.394531 25.355469 84.394531 C 25.355469 84.394531 8.4375 87.886719 4.390625 77.230469 C 4.390625 77.230469 14.6875 86.414062 32.527344 78.148438 C 32.527344 78.148438 31.605469 86.046875 44.476562 92.296875 C 57.351562 98.542969 69.671875 93.582031 78.863281 86.414062 C 78.863281 86.414062 79.601562 96.523438 91.367188 99.28125 C 103.136719 102.035156 104.792969 93.949219 104.792969 93.949219 C 104.792969 93.949219 107.367188 97.992188 113.066406 100.015625 C 118.769531 102.035156 122.628906 96.339844 122.628906 96.339844 C 122.628906 96.339844 127.960938 100.75 137.15625 100.75 C 146.351562 100.75 148.375 91.746094 143.59375 86.601562 C 143.59375 86.601562 152.601562 92.480469 161.980469 92.480469 C 171.359375 92.480469 173.199219 85.679688 173.199219 85.679688 C 173.199219 85.679688 179.265625 86.96875 184.597656 81.820312 C 189.929688 76.675781 188.277344 70.246094 188.277344 70.246094 Z M 188.277344 70.246094 "/>
</g>
</svg>
